<svg xmlns="http://www.w3.org/2000/svg" viewBox="0 0 64 64">
  <defs>
    <linearGradient id="canopy" x1="0%" y1="0%" x2="100%" y2="100%">
      <stop offset="0%" style="stop-color:#fbbf24"/>
      <stop offset="100%" style="stop-color:#f59e0b"/>
    </linearGradient>
  </defs>
  <!-- Canopy dome -->
  <path d="M32 7 C15 7 3 19 3 33 L61 33 C61 19 49 7 32 7Z" fill="url(#canopy)"/>
  <!-- Canopy ribs (subtle) -->
  <line x1="32" y1="7" x2="32" y2="33" stroke="#92400e" stroke-width="0.8" opacity="0.35"/>
  <line x1="20" y1="9.5" x2="22" y2="33" stroke="#92400e" stroke-width="0.8" opacity="0.35"/>
  <line x1="44" y1="9.5" x2="42" y2="33" stroke="#92400e" stroke-width="0.8" opacity="0.35"/>
  <line x1="10" y1="17" x2="14" y2="33" stroke="#92400e" stroke-width="0.8" opacity="0.35"/>
  <line x1="54" y1="17" x2="50" y2="33" stroke="#92400e" stroke-width="0.8" opacity="0.35"/>
  <!-- Canopy edge highlight -->
  <path d="M3 33 Q5 36 8 35 Q14 38 20 35 Q26 38 32 35 Q38 38 44 35 Q50 38 56 35 Q59 36 61 33" fill="#fbbf24" opacity="0.6"/>
  <!-- Handle stem -->
  <line x1="32" y1="33" x2="32" y2="54" stroke="#f59e0b" stroke-width="3" stroke-linecap="round"/>
  <!-- Handle crook -->
  <path d="M32 54 Q32 61 25 61 Q20 61 20 55.5" stroke="#f59e0b" stroke-width="3" fill="none" stroke-linecap="round" stroke-linejoin="round"/>
</svg>
